<mxfile host="www.draw.io" modified="2023-04-08T05:30:50.346Z" agent="Mozilla/5.0 (Windows NT 10.0; Win64; x64) AppleWebKit/537.36 (KHTML, like Gecko) Chrome/111.0.0.0 Safari/537.36" etag="AdTygdBRAqMZbNnbAjGX" version="21.1.5" type="device">
  <diagram id="C5RBs43oDa-KdzZeNtuy" name="Page-1">
    <mxGraphModel dx="1434" dy="796" grid="1" gridSize="10" guides="1" tooltips="1" connect="1" arrows="1" fold="1" page="1" pageScale="1" pageWidth="827" pageHeight="1169" math="0" shadow="0">
      <root>
        <mxCell id="WIyWlLk6GJQsqaUBKTNV-0" />
        <mxCell id="WIyWlLk6GJQsqaUBKTNV-1" parent="WIyWlLk6GJQsqaUBKTNV-0" />
        <mxCell id="_6RQQefL03wIJ9V6XjeD-7" style="edgeStyle=orthogonalEdgeStyle;rounded=0;orthogonalLoop=1;jettySize=auto;html=1;entryX=0.5;entryY=0;entryDx=0;entryDy=0;" edge="1" parent="WIyWlLk6GJQsqaUBKTNV-1" source="_6RQQefL03wIJ9V6XjeD-0" target="_6RQQefL03wIJ9V6XjeD-1">
          <mxGeometry relative="1" as="geometry" />
        </mxCell>
        <mxCell id="_6RQQefL03wIJ9V6XjeD-0" value="" style="strokeWidth=2;html=1;shape=mxgraph.flowchart.start_2;whiteSpace=wrap;fillColor=#f8cecc;strokeColor=#b85450;" vertex="1" parent="WIyWlLk6GJQsqaUBKTNV-1">
          <mxGeometry x="360" y="40" width="70" height="70" as="geometry" />
        </mxCell>
        <mxCell id="_6RQQefL03wIJ9V6XjeD-8" style="edgeStyle=orthogonalEdgeStyle;rounded=0;orthogonalLoop=1;jettySize=auto;html=1;" edge="1" parent="WIyWlLk6GJQsqaUBKTNV-1" source="_6RQQefL03wIJ9V6XjeD-1" target="_6RQQefL03wIJ9V6XjeD-2">
          <mxGeometry relative="1" as="geometry" />
        </mxCell>
        <mxCell id="_6RQQefL03wIJ9V6XjeD-1" value="&quot;Ingrese el primer lado del triangulo: &quot; lado1" style="shape=parallelogram;html=1;strokeWidth=2;perimeter=parallelogramPerimeter;whiteSpace=wrap;rounded=1;arcSize=12;size=0.23;fillColor=#dae8fc;strokeColor=#6c8ebf;" vertex="1" parent="WIyWlLk6GJQsqaUBKTNV-1">
          <mxGeometry x="230" y="140" width="340" height="60" as="geometry" />
        </mxCell>
        <mxCell id="_6RQQefL03wIJ9V6XjeD-9" style="edgeStyle=orthogonalEdgeStyle;rounded=0;orthogonalLoop=1;jettySize=auto;html=1;" edge="1" parent="WIyWlLk6GJQsqaUBKTNV-1" source="_6RQQefL03wIJ9V6XjeD-2" target="_6RQQefL03wIJ9V6XjeD-3">
          <mxGeometry relative="1" as="geometry" />
        </mxCell>
        <mxCell id="_6RQQefL03wIJ9V6XjeD-2" value="&quot;Ingrese el segundo lado del triangulo: &quot; lado2" style="shape=parallelogram;html=1;strokeWidth=2;perimeter=parallelogramPerimeter;whiteSpace=wrap;rounded=1;arcSize=12;size=0.23;fillColor=#dae8fc;strokeColor=#6c8ebf;" vertex="1" parent="WIyWlLk6GJQsqaUBKTNV-1">
          <mxGeometry x="205" y="240" width="360" height="60" as="geometry" />
        </mxCell>
        <mxCell id="_6RQQefL03wIJ9V6XjeD-10" style="edgeStyle=orthogonalEdgeStyle;rounded=0;orthogonalLoop=1;jettySize=auto;html=1;" edge="1" parent="WIyWlLk6GJQsqaUBKTNV-1" source="_6RQQefL03wIJ9V6XjeD-3" target="_6RQQefL03wIJ9V6XjeD-4">
          <mxGeometry relative="1" as="geometry" />
        </mxCell>
        <mxCell id="_6RQQefL03wIJ9V6XjeD-3" value="&quot;Ingrese el tercer lado del triangulo:&quot; lado3" style="shape=parallelogram;html=1;strokeWidth=2;perimeter=parallelogramPerimeter;whiteSpace=wrap;rounded=1;arcSize=12;size=0.23;fillColor=#dae8fc;strokeColor=#6c8ebf;" vertex="1" parent="WIyWlLk6GJQsqaUBKTNV-1">
          <mxGeometry x="220" y="330" width="360" height="60" as="geometry" />
        </mxCell>
        <mxCell id="_6RQQefL03wIJ9V6XjeD-11" style="edgeStyle=orthogonalEdgeStyle;rounded=0;orthogonalLoop=1;jettySize=auto;html=1;" edge="1" parent="WIyWlLk6GJQsqaUBKTNV-1" source="_6RQQefL03wIJ9V6XjeD-4" target="_6RQQefL03wIJ9V6XjeD-5">
          <mxGeometry relative="1" as="geometry" />
        </mxCell>
        <mxCell id="_6RQQefL03wIJ9V6XjeD-4" value="perimetro =&amp;nbsp; lado1 + lado2 + lado3" style="rounded=1;whiteSpace=wrap;html=1;absoluteArcSize=1;arcSize=14;strokeWidth=2;fillColor=#dae8fc;strokeColor=#6c8ebf;" vertex="1" parent="WIyWlLk6GJQsqaUBKTNV-1">
          <mxGeometry x="273.75" y="430" width="247.5" height="70" as="geometry" />
        </mxCell>
        <mxCell id="_6RQQefL03wIJ9V6XjeD-12" style="edgeStyle=orthogonalEdgeStyle;rounded=0;orthogonalLoop=1;jettySize=auto;html=1;" edge="1" parent="WIyWlLk6GJQsqaUBKTNV-1" source="_6RQQefL03wIJ9V6XjeD-5" target="_6RQQefL03wIJ9V6XjeD-6">
          <mxGeometry relative="1" as="geometry" />
        </mxCell>
        <mxCell id="_6RQQefL03wIJ9V6XjeD-5" value="&quot;&quot;El perimetro del triangulo es:&quot; . perimetro" style="strokeWidth=2;html=1;shape=mxgraph.flowchart.document2;whiteSpace=wrap;size=0.25;fillColor=#dae8fc;strokeColor=#6c8ebf;" vertex="1" parent="WIyWlLk6GJQsqaUBKTNV-1">
          <mxGeometry x="295" y="550" width="205" height="90" as="geometry" />
        </mxCell>
        <mxCell id="_6RQQefL03wIJ9V6XjeD-6" value="" style="strokeWidth=2;html=1;shape=mxgraph.flowchart.start_2;whiteSpace=wrap;fillColor=#f8cecc;strokeColor=#b85450;" vertex="1" parent="WIyWlLk6GJQsqaUBKTNV-1">
          <mxGeometry x="355" y="660" width="75" height="70" as="geometry" />
        </mxCell>
      </root>
    </mxGraphModel>
  </diagram>
</mxfile>
